<svg width="316" height="243" viewBox="0 0 316 243" fill="none" xmlns="http://www.w3.org/2000/svg">
<path d="M60.8955 196.708L0 240.995C0 240.995 0 243.859 0 242.741V133.141C0 132.07 0.395275 131.138 1.18582 130.347L16.8805 118.122C17.6246 117.377 18.5546 117.005 19.6707 117.005H59.1516C60.3142 117.005 60.8955 117.587 60.8955 118.751V133.839C60.8955 135.004 60.3142 135.586 59.1516 135.586H25.5998C24.9488 135.586 24.3908 135.819 23.9257 136.284C23.4607 136.75 23.2282 137.309 23.2282 137.961V189.024C23.2282 189.676 23.4607 190.235 23.9257 190.7C24.3908 191.166 24.9488 191.399 25.5998 191.399H40.6668V172.748H31.7382C30.5756 172.748 29.9943 172.166 29.9943 171.002V155.983C29.9943 154.819 30.5756 154.237 31.7382 154.237H60.3375C61.5 154.237 62.0813 154.819 62.0813 155.983V193.914C62.0813 195.031 61.686 195.963 60.8955 196.708Z" fill="#F1F1F1"/>
<path d="M97.6288 173.446C96.5592 173.446 95.6291 173.051 94.8386 172.259L77.4 158.288C76.6095 157.543 76.2142 156.612 76.2142 155.494V111.067C76.2142 109.95 76.6095 109.018 77.4 108.273L91.3509 97.795C92.1414 97.0033 93.0715 96.6075 94.141 96.6075H131.46C132.622 96.6075 133.203 97.1896 133.203 98.3538V171.7C133.203 172.864 132.622 173.446 131.46 173.446H116.951C116.346 173.446 115.881 173.33 115.556 173.097C115.277 172.864 114.951 172.585 114.579 172.259L111.091 168.766L107.604 172.259C106.86 173.051 105.93 173.446 104.813 173.446H97.6288ZM102.302 157.171H107.185C108.673 157.171 109.696 156.868 110.254 156.262C110.812 155.657 111.091 154.586 111.091 153.049V112.883H102.302C100.768 112.883 99.7214 113.186 99.1634 113.791C98.6053 114.397 98.3263 115.468 98.3263 117.005V153.049C98.3263 154.586 98.6053 155.657 99.1634 156.262C99.7214 156.868 100.768 157.171 102.302 157.171Z" fill="#F1F1F1"/>
<path d="M151.198 173.446C150.035 173.446 149.454 172.864 149.454 171.7V98.3538C149.454 97.1896 150.035 96.6075 151.198 96.6075H169.753C170.915 96.6075 171.496 97.1896 171.496 98.3538V171.7C171.496 172.864 170.915 173.446 169.753 173.446H151.198ZM150.849 90.8097C149.919 90.8097 149.454 90.344 149.454 89.4126V80.5412C149.454 79.6098 149.919 79.1441 150.849 79.1441H170.241C171.078 79.1441 171.496 79.6098 171.496 80.5412V89.4126C171.496 90.344 171.078 90.8097 170.241 90.8097H150.849Z" fill="#F1F1F1"/>
<path d="M189.481 173.446C188.318 173.446 187.737 172.864 187.737 171.7V98.3538C187.737 97.1896 188.318 96.6075 189.481 96.6075H226.799C227.869 96.6075 228.799 97.0033 229.59 97.795L243.541 108.273C244.331 109.018 244.726 109.95 244.726 111.067V171.7C244.726 172.864 244.145 173.446 242.983 173.446H224.358C223.196 173.446 222.614 172.864 222.614 171.7V117.354C222.614 115.165 221.521 114.071 219.336 114.071H209.849V171.7C209.849 172.864 209.268 173.446 208.105 173.446H189.481Z" fill="#F1F1F1"/>
<path d="M293.33 126.295V16.4156L303.793 8.2078L314.256 0C315.419 0 316 0.582113 316 1.74634V39.3276C316 40.1658 315.651 40.8643 314.954 41.4232L298.352 54.1365V75.7911L312.652 87.3868C312.931 87.7128 313.163 88.0621 313.349 88.4346C313.582 88.7606 313.698 89.1565 313.698 89.6221V110.718C313.698 111.603 313.396 112.301 312.791 112.814L296.748 125.457C296.422 125.643 296.074 125.83 295.702 126.016C295.329 126.202 294.934 126.295 294.516 126.295H293.33ZM257.337 154.237C256.174 154.237 255.593 153.655 255.593 152.49V110.718C255.593 110.113 255.616 109.647 255.663 109.321C255.756 108.995 256.035 108.669 256.5 108.343L272.543 96.9568V80.5412L259.081 70.0631C258.29 69.4112 257.895 68.7126 257.895 67.9675V45.824C257.895 45.0788 257.941 44.5433 258.034 44.2173C258.127 43.8448 258.476 43.4489 259.081 43.0298L275.194 30.5959C275.612 30.3165 276.031 30.1069 276.449 29.9672C276.868 29.7809 277.379 29.6878 277.984 29.6878H278.263V138.52L257.337 154.237ZM284.611 133.071C283.448 133.071 282.867 132.489 282.867 131.325V21.6546C282.867 20.4904 283.448 19.9083 284.611 19.9083H286.982C288.145 19.9083 288.726 20.4904 288.726 21.6546V131.325C288.726 132.489 288.145 133.071 286.982 133.071H284.611Z" fill="url(#paint0_linear_255_1258)"/>
<path d="M82.2325 207.602L76 184.33H78.1108L83.2657 204.341H83.4435L88.5984 184.33H90.998L96.1529 204.341H96.3307L101.486 184.33H103.607L97.375 207.602H95.153L89.876 187.864H89.7315L84.4544 207.602H82.2325Z" fill="#F1F1F1"/>
<path d="M106.974 207.602V190.148H108.962V207.602H106.974ZM107.985 187.148C107.577 187.148 107.229 187.008 106.94 186.727C106.652 186.439 106.507 186.095 106.507 185.693C106.507 185.292 106.652 184.951 106.94 184.67C107.229 184.383 107.577 184.239 107.985 184.239C108.392 184.239 108.74 184.383 109.029 184.67C109.318 184.951 109.462 185.292 109.462 185.693C109.462 186.095 109.318 186.439 109.029 186.727C108.74 187.008 108.392 187.148 107.985 187.148Z" fill="#F1F1F1"/>
<path d="M116.17 196.693V207.602H114.192V190.148H116.114V192.886H116.292C116.692 191.992 117.314 191.277 118.158 190.739C119.01 190.193 120.062 189.92 121.314 189.92C122.462 189.92 123.469 190.167 124.335 190.659C125.209 191.144 125.887 191.86 126.368 192.807C126.857 193.754 127.102 194.917 127.102 196.295V207.602H125.124V196.42C125.124 194.989 124.732 193.856 123.946 193.023C123.169 192.189 122.125 191.773 120.814 191.773C119.917 191.773 119.121 191.97 118.425 192.364C117.729 192.758 117.177 193.326 116.77 194.068C116.37 194.803 116.17 195.678 116.17 196.693Z" fill="#F1F1F1"/>
<path d="M147.741 207.966C146.267 207.966 144.963 207.583 143.83 206.818C142.704 206.053 141.823 204.996 141.186 203.648C140.549 202.292 140.23 200.727 140.23 198.955C140.23 197.167 140.549 195.595 141.186 194.239C141.823 192.875 142.704 191.814 143.83 191.057C144.963 190.292 146.267 189.909 147.741 189.909C149.214 189.909 150.514 190.292 151.64 191.057C152.766 191.822 153.647 192.883 154.284 194.239C154.929 195.595 155.251 197.167 155.251 198.955C155.251 200.727 154.932 202.292 154.295 203.648C153.658 204.996 152.773 206.053 151.64 206.818C150.514 207.583 149.214 207.966 147.741 207.966ZM147.741 206.114C148.926 206.114 149.929 205.788 150.751 205.136C151.573 204.485 152.196 203.617 152.618 202.534C153.047 201.451 153.262 200.258 153.262 198.955C153.262 197.652 153.047 196.455 152.618 195.364C152.196 194.273 151.573 193.398 150.751 192.739C149.929 192.08 148.926 191.75 147.741 191.75C146.563 191.75 145.559 192.08 144.73 192.739C143.908 193.398 143.282 194.273 142.852 195.364C142.43 196.455 142.219 197.652 142.219 198.955C142.219 200.258 142.43 201.451 142.852 202.534C143.282 203.617 143.908 204.485 144.73 205.136C145.552 205.788 146.556 206.114 147.741 206.114Z" fill="#F1F1F1"/>
<path d="M161.569 196.693V207.602H159.592V190.148H161.514V192.886H161.692C162.091 191.992 162.714 191.277 163.558 190.739C164.41 190.193 165.461 189.92 166.713 189.92C167.861 189.92 168.868 190.167 169.735 190.659C170.609 191.144 171.287 191.86 171.768 192.807C172.257 193.754 172.501 194.917 172.501 196.295V207.602H170.524V196.42C170.524 194.989 170.131 193.856 169.346 193.023C168.568 192.189 167.524 191.773 166.213 191.773C165.317 191.773 164.521 191.97 163.825 192.364C163.128 192.758 162.577 193.326 162.169 194.068C161.769 194.803 161.569 195.678 161.569 196.693Z" fill="#F1F1F1"/>
<path d="M199.273 190.148C199.147 188.852 198.588 187.822 197.595 187.057C196.603 186.292 195.355 185.909 193.851 185.909C192.792 185.909 191.859 186.095 191.052 186.466C190.252 186.837 189.622 187.352 189.163 188.011C188.711 188.663 188.485 189.405 188.485 190.239C188.485 190.852 188.615 191.39 188.874 191.852C189.133 192.314 189.481 192.712 189.918 193.045C190.363 193.371 190.852 193.652 191.385 193.886C191.926 194.121 192.47 194.318 193.018 194.477L195.418 195.182C196.144 195.386 196.869 195.648 197.595 195.966C198.321 196.284 198.984 196.686 199.584 197.17C200.191 197.648 200.676 198.235 201.039 198.932C201.41 199.621 201.595 200.451 201.595 201.42C201.595 202.663 201.28 203.78 200.65 204.773C200.021 205.765 199.117 206.553 197.94 207.136C196.762 207.712 195.351 208 193.707 208C192.159 208 190.815 207.739 189.674 207.216C188.533 206.686 187.637 205.955 186.985 205.023C186.334 204.091 185.967 203.011 185.886 201.784H188.019C188.093 202.701 188.389 203.477 188.907 204.114C189.426 204.75 190.1 205.235 190.929 205.568C191.759 205.894 192.685 206.057 193.707 206.057C194.84 206.057 195.847 205.864 196.729 205.477C197.617 205.083 198.314 204.538 198.817 203.841C199.328 203.136 199.584 202.318 199.584 201.386C199.584 200.598 199.384 199.939 198.984 199.409C198.584 198.871 198.025 198.42 197.306 198.057C196.595 197.693 195.77 197.371 194.829 197.091L192.107 196.273C190.322 195.727 188.937 194.973 187.952 194.011C186.967 193.049 186.474 191.822 186.474 190.33C186.474 189.08 186.8 187.981 187.452 187.034C188.111 186.08 189 185.337 190.118 184.807C191.244 184.269 192.507 184 193.907 184C195.321 184 196.573 184.265 197.662 184.795C198.751 185.326 199.613 186.057 200.25 186.989C200.895 187.913 201.239 188.966 201.284 190.148H199.273Z" fill="#F1F1F1"/>
<path d="M212.815 207.966C211.342 207.966 210.038 207.583 208.905 206.818C207.779 206.053 206.898 204.996 206.261 203.648C205.624 202.292 205.305 200.727 205.305 198.955C205.305 197.167 205.624 195.595 206.261 194.239C206.898 192.875 207.779 191.814 208.905 191.057C210.038 190.292 211.342 189.909 212.815 189.909C214.289 189.909 215.589 190.292 216.715 191.057C217.841 191.822 218.722 192.883 219.359 194.239C220.003 195.595 220.326 197.167 220.326 198.955C220.326 200.727 220.007 202.292 219.37 203.648C218.733 204.996 217.848 206.053 216.715 206.818C215.589 207.583 214.289 207.966 212.815 207.966ZM212.815 206.114C214 206.114 215.004 205.788 215.826 205.136C216.648 204.485 217.27 203.617 217.693 202.534C218.122 201.451 218.337 200.258 218.337 198.955C218.337 197.652 218.122 196.455 217.693 195.364C217.27 194.273 216.648 193.398 215.826 192.739C215.004 192.08 214 191.75 212.815 191.75C211.638 191.75 210.634 192.08 209.805 192.739C208.983 193.398 208.357 194.273 207.927 195.364C207.505 196.455 207.294 197.652 207.294 198.955C207.294 200.258 207.505 201.451 207.927 202.534C208.357 203.617 208.983 204.485 209.805 205.136C210.627 205.788 211.63 206.114 212.815 206.114Z" fill="#F1F1F1"/>
<path d="M226.644 184.33V207.602H224.667V184.33H226.644Z" fill="#F1F1F1"/>
<path d="M236.643 208C235.613 208 234.673 207.795 233.821 207.386C232.969 206.97 232.292 206.371 231.788 205.591C231.284 204.803 231.032 203.848 231.032 202.727C231.032 201.864 231.192 201.136 231.51 200.545C231.829 199.955 232.28 199.47 232.866 199.091C233.451 198.712 234.143 198.413 234.943 198.193C235.743 197.973 236.624 197.803 237.587 197.682C238.543 197.561 239.35 197.455 240.009 197.364C240.676 197.273 241.183 197.129 241.531 196.932C241.879 196.735 242.053 196.417 242.053 195.977V195.568C242.053 194.379 241.705 193.443 241.009 192.761C240.32 192.072 239.328 191.727 238.032 191.727C236.802 191.727 235.799 192.004 235.021 192.557C234.251 193.11 233.71 193.761 233.399 194.511L231.521 193.818C231.906 192.864 232.44 192.102 233.121 191.534C233.802 190.958 234.565 190.545 235.41 190.295C236.254 190.038 237.109 189.909 237.976 189.909C238.628 189.909 239.305 189.996 240.009 190.17C240.72 190.345 241.379 190.648 241.987 191.08C242.594 191.504 243.086 192.098 243.464 192.864C243.842 193.621 244.031 194.583 244.031 195.75V207.602H242.053V204.841H241.931C241.694 205.356 241.342 205.856 240.876 206.341C240.409 206.826 239.824 207.223 239.12 207.534C238.417 207.845 237.591 208 236.643 208ZM236.909 206.148C237.961 206.148 238.872 205.909 239.642 205.432C240.413 204.955 241.005 204.322 241.42 203.534C241.842 202.739 242.053 201.864 242.053 200.909V198.386C241.905 198.53 241.657 198.659 241.309 198.773C240.968 198.886 240.572 198.989 240.12 199.08C239.676 199.163 239.231 199.235 238.787 199.295C238.343 199.356 237.943 199.409 237.587 199.455C236.624 199.576 235.802 199.765 235.121 200.023C234.439 200.28 233.917 200.636 233.554 201.091C233.191 201.538 233.01 202.114 233.01 202.818C233.01 203.879 233.38 204.701 234.121 205.284C234.862 205.86 235.791 206.148 236.909 206.148Z" fill="#F1F1F1"/>
<path d="M251.269 196.693V207.602H249.291V190.148H251.213V192.886H251.391C251.791 191.992 252.413 191.277 253.257 190.739C254.109 190.193 255.161 189.92 256.412 189.92C257.56 189.92 258.568 190.167 259.434 190.659C260.308 191.144 260.986 191.86 261.467 192.807C261.956 193.754 262.201 194.917 262.201 196.295V207.602H260.223V196.42C260.223 194.989 259.831 193.856 259.045 193.023C258.268 192.189 257.223 191.773 255.913 191.773C255.016 191.773 254.22 191.97 253.524 192.364C252.828 192.758 252.276 193.326 251.869 194.068C251.469 194.803 251.269 195.678 251.269 196.693Z" fill="#F1F1F1"/>
<path d="M272.174 208C271.145 208 270.204 207.795 269.352 207.386C268.501 206.97 267.823 206.371 267.319 205.591C266.816 204.803 266.564 203.848 266.564 202.727C266.564 201.864 266.723 201.136 267.042 200.545C267.36 199.955 267.812 199.47 268.397 199.091C268.982 198.712 269.675 198.413 270.475 198.193C271.274 197.973 272.156 197.803 273.119 197.682C274.074 197.561 274.881 197.455 275.541 197.364C276.207 197.273 276.714 197.129 277.063 196.932C277.411 196.735 277.585 196.417 277.585 195.977V195.568C277.585 194.379 277.237 193.443 276.54 192.761C275.852 192.072 274.859 191.727 273.563 191.727C272.334 191.727 271.33 192.004 270.552 192.557C269.782 193.11 269.241 193.761 268.93 194.511L267.053 193.818C267.438 192.864 267.971 192.102 268.653 191.534C269.334 190.958 270.097 190.545 270.941 190.295C271.785 190.038 272.641 189.909 273.507 189.909C274.159 189.909 274.837 189.996 275.541 190.17C276.252 190.345 276.911 190.648 277.518 191.08C278.125 191.504 278.618 192.098 278.996 192.864C279.373 193.621 279.562 194.583 279.562 195.75V207.602H277.585V204.841H277.462C277.225 205.356 276.874 205.856 276.407 206.341C275.94 206.826 275.355 207.223 274.652 207.534C273.948 207.845 273.122 208 272.174 208ZM272.441 206.148C273.493 206.148 274.404 205.909 275.174 205.432C275.944 204.955 276.537 204.322 276.951 203.534C277.374 202.739 277.585 201.864 277.585 200.909V198.386C277.437 198.53 277.188 198.659 276.84 198.773C276.5 198.886 276.103 198.989 275.652 199.08C275.207 199.163 274.763 199.235 274.318 199.295C273.874 199.356 273.474 199.409 273.119 199.455C272.156 199.576 271.334 199.765 270.652 200.023C269.971 200.28 269.449 200.636 269.086 201.091C268.723 201.538 268.541 202.114 268.541 202.818C268.541 203.879 268.912 204.701 269.652 205.284C270.393 205.86 271.323 206.148 272.441 206.148Z" fill="#F1F1F1"/>
<path d="M286.4 207.773C285.963 207.773 285.586 207.614 285.267 207.295C284.956 206.97 284.8 206.583 284.8 206.136C284.8 205.682 284.956 205.295 285.267 204.977C285.586 204.659 285.963 204.5 286.4 204.5C286.845 204.5 287.222 204.659 287.533 204.977C287.844 205.295 288 205.682 288 206.136C288 206.432 287.926 206.705 287.778 206.955C287.637 207.205 287.445 207.405 287.2 207.557C286.963 207.701 286.696 207.773 286.4 207.773Z" fill="#F1F1F1"/>
<defs>
<linearGradient id="paint0_linear_255_1258" x1="223.692" y1="136.901" x2="291.029" y2="65.9695" gradientUnits="userSpaceOnUse">
<stop stop-color="#C530F1"/>
<stop offset="1" stop-color="#21DAAC"/>
</linearGradient>
</defs>
</svg>
